<svg width="40" height="41" viewBox="0 0 40 41" fill="none" xmlns="http://www.w3.org/2000/svg">
<path d="M36.1 17.8532L34.4666 24.8684C33.0666 30.927 30.3 33.3773 25.1 32.8738C24.2666 32.8067 23.3666 32.6556 22.4 32.4207L19.6 31.7494C12.65 30.0879 10.5 26.6306 12.1333 19.6154L13.7666 12.5834C14.1 11.1569 14.5 9.91497 15 8.89123C16.95 4.8298 20.2666 3.73892 25.8333 5.06476L28.6166 5.71928C35.6 7.36399 37.7333 10.838 36.1 17.8532Z" stroke="#A761FF" stroke-width="3" stroke-linecap="round" stroke-linejoin="round"/>
<path d="M25.1001 32.8738C24.0667 33.5787 22.7667 34.1661 21.1834 34.6863L18.5501 35.5591C11.9334 37.7072 8.45008 35.9115 6.30008 29.2487L4.16675 22.6195C2.03341 15.9568 3.80008 12.4324 10.4167 10.2842L13.0501 9.4115C13.7334 9.19333 14.3834 9.00871 15.0001 8.89124C14.5001 9.91498 14.1001 11.1569 13.7667 12.5834L12.1334 19.6154C10.5001 26.6306 12.6501 30.0879 19.6001 31.7494L22.4001 32.4207C23.3667 32.6556 24.2667 32.8067 25.1001 32.8738Z" stroke="#A761FF" stroke-width="3" stroke-linecap="round" stroke-linejoin="round"/>
<path d="M21.0667 14.6477L29.15 16.712" stroke="#A761FF" stroke-width="3" stroke-linecap="round" stroke-linejoin="round"/>
<path d="M19.4333 21.1426L24.2667 22.3846" stroke="#A761FF" stroke-width="3" stroke-linecap="round" stroke-linejoin="round"/>
</svg>
