<svg width="24" height="24" viewBox="0 0 24 24" fill="none" xmlns="http://www.w3.org/2000/svg">
<path d="M10.0495 2.52979L4.02953 6.45979C2.09953 7.71979 2.09953 10.5398 4.02953 11.7998L10.0495 15.7298C11.1295 16.4398 12.9095 16.4398 13.9895 15.7298L19.9795 11.7998C21.8995 10.5398 21.8995 7.72979 19.9795 6.46979L13.9895 2.53979C12.9095 1.81979 11.1295 1.81979 10.0495 2.52979Z" stroke="url(#paint0_linear_3927_3493)" stroke-width="2" stroke-linecap="round" stroke-linejoin="round"/>
<path d="M5.63012 13.0801L5.62012 17.7701C5.62012 19.0401 6.60012 20.4001 7.80012 20.8001L10.9901 21.8601C11.5401 22.0401 12.4501 22.0401 13.0101 21.8601L16.2001 20.8001C17.4001 20.4001 18.3801 19.0401 18.3801 17.7701V13.1301" stroke="url(#paint1_linear_3927_3493)" stroke-width="2" stroke-linecap="round" stroke-linejoin="round"/>
<path d="M21.4004 15V9" stroke="url(#paint2_linear_3927_3493)" stroke-width="2" stroke-linecap="round" stroke-linejoin="round"/>
<defs>
<linearGradient id="paint0_linear_3927_3493" x1="13.0006" y1="9.66151" x2="21.8511" y2="10.2101" gradientUnits="userSpaceOnUse">
<stop stop-color="#6031D9"/>
<stop offset="1" stop-color="#A761FF"/>
</linearGradient>
<linearGradient id="paint1_linear_3927_3493" x1="12.6774" y1="17.8695" x2="18.6684" y2="18.272" gradientUnits="userSpaceOnUse">
<stop stop-color="#6031D9"/>
<stop offset="1" stop-color="#A761FF"/>
</linearGradient>
<linearGradient id="paint2_linear_3927_3493" x1="21.9535" y1="12.2234" x2="22.4251" y2="12.2271" gradientUnits="userSpaceOnUse">
<stop stop-color="#6031D9"/>
<stop offset="1" stop-color="#A761FF"/>
</linearGradient>
</defs>
</svg>
