<?xml version="1.0" encoding="UTF-8"?>
<svg width="150" height="150" version="1.1" viewBox="0 0 39.687499 39.687501" xmlns="http://www.w3.org/2000/svg" xmlns:cc="http://creativecommons.org/ns#" xmlns:dc="http://purl.org/dc/elements/1.1/" xmlns:rdf="http://www.w3.org/1999/02/22-rdf-syntax-ns#">
<metadata>
<rdf:RDF>
<cc:Work rdf:about="">
<dc:format>image/svg+xml</dc:format>
<dc:type rdf:resource="http://purl.org/dc/dcmitype/StillImage"/>
<dc:title/>
</cc:Work>
</rdf:RDF>
</metadata>
<g transform="translate(0 -257.31)">
<ellipse cx="19.844" cy="277.16" rx="19.711" ry="19.711" fill="none" stroke="#f7ffff" stroke-linecap="square" stroke-width=".26466"/>
<flowRoot transform="matrix(.26458 0 0 .26458 0 257.31)" fill="#000000" font-family="'Open Sans'" font-size="40px" letter-spacing="0px" stroke-width="1px" word-spacing="0px" style="line-height:1000%" xml:space="preserve"><flowRegion><rect x="13.28" y="15.434" width="48.987" height="48.101"/></flowRegion><flowPara>+</flowPara></flowRoot>
<text x="-0.51987529" y="271.27094" fill="#000000" font-family="'Open Sans'" font-size="22.73px" letter-spacing="0px" stroke-width=".56825px" word-spacing="0px" style="line-height:1000%" xml:space="preserve"><tspan x="-0.51987529" y="271.27094" fill="#001d51" font-family="'Open Sans'" font-weight="bold" stroke-width=".56825px">+</tspan></text>
<flowRoot fill="black" font-family="'Open Sans'" font-size="40px" letter-spacing="0px" stroke-width="1px" word-spacing="0px" style="line-height:1000%" xml:space="preserve"><flowRegion><rect x="-30.395" y="58.519" width="215.13" height="116.27"/></flowRegion><flowPara/></flowRoot>
<flowRoot transform="matrix(.26458 0 0 .26458 0 257.31)" fill="#000000" font-family="'Open Sans'" font-size="40px" letter-spacing="0px" stroke-width="1px" word-spacing="0px" style="line-height:1000%" xml:space="preserve"><flowRegion><rect x="-25.969" y="58.224" width="203.32" height="115.09"/></flowRegion><flowPara>100%</flowPara></flowRoot>
<g transform="scale(.98912 1.011)" fill="#001d51" stroke-width=".23831px" aria-label="100% SATISFACTION GARANTIE ">
<path d="m11.536 273.72h-1.0938v-4.3938q0-0.7866 0.03724-1.2474-0.10705 0.11171-0.2653 0.24669-0.1536 0.13498-1.0426 0.85642l-0.54922-0.69352 2.0014-1.5732h0.91227z"/>
<path d="m18.373 270.32q0 1.7734-0.5725 2.6344-0.56784 0.86107-1.7408 0.86107-1.1357 0-1.7221-0.889t-0.58646-2.6065q0-1.8013 0.56784-2.653 0.5725-0.85642 1.7408-0.85642 1.1403 0 1.7268 0.89365 0.58646 0.89366 0.58646 2.6158zm-3.5141 0q0 1.3917 0.28392 1.9874 0.28858 0.59577 0.91693 0.59577 0.62835 0 0.91693-0.60508 0.29323-0.60508 0.29323-1.9781 0-1.3684-0.29323-1.9781-0.28858-0.61439-0.91693-0.61439-0.62835 0-0.91693 0.60043-0.28392 0.60042-0.28392 1.9921z"/>
<path d="m23.81 270.32q0 1.7734-0.5725 2.6344-0.56784 0.86107-1.7408 0.86107-1.1357 0-1.7221-0.889t-0.58646-2.6065q0-1.8013 0.56784-2.653 0.5725-0.85642 1.7408-0.85642 1.1403 0 1.7268 0.89365 0.58646 0.89366 0.58646 2.6158zm-3.5141 0q0 1.3917 0.28392 1.9874 0.28858 0.59577 0.91693 0.59577 0.62835 0 0.91693-0.60508 0.29323-0.60508 0.29323-1.9781 0-1.3684-0.29323-1.9781-0.28858-0.61439-0.91693-0.61439-0.62835 0-0.91693 0.60043-0.28392 0.60042-0.28392 1.9921z"/>
<path d="m25.513 268.96q0 0.69351 0.13498 1.0333 0.13498 0.33977 0.44217 0.33977 0.61439 0 0.61439-1.3731t-0.61439-1.3731q-0.30719 0-0.44217 0.33977-0.13498 0.33978-0.13498 1.0333zm2.0945-9e-3q0 1.0705-0.38632 1.6104-0.38166 0.53526-1.131 0.53526-0.70748 0-1.0985-0.55388-0.38632-0.55853-0.38632-1.5918 0-2.1271 1.4848-2.1271 0.73075 0 1.1217 0.55388 0.39563 0.54922 0.39563 1.5732zm2.3365 2.7275q0 0.69351 0.13498 1.0379 0.13963 0.34443 0.44683 0.34443 0.60973 0 0.60973-1.3824 0-1.3638-0.60973-1.3638-0.30719 0-0.44683 0.33512-0.13498 0.33512-0.13498 1.0286zm2.0945 0q0 1.0705-0.38632 1.6058-0.38632 0.53526-1.1264 0.53526-0.70748 0-1.0984-0.54922-0.39097-0.55388-0.39097-1.5918 0-2.1271 1.4894-2.1271 0.71678 0 1.1124 0.54923 0.40028 0.54922 0.40028 1.5779zm-1.3824-4.7568-3.7748 6.8048h-0.90296l3.7748-6.8048z"/>
<path d="m7.4759 278.91q0 0.41921-0.30409 0.6538-0.30409 0.23458-0.82539 0.23458-0.56474 0-0.86883-0.14553v-0.35622q0.19549 0.0825 0.42573 0.13033 0.23024 0.0478 0.45614 0.0478 0.36925 0 0.55605-0.13901 0.1868-0.14118 0.1868-0.39097 0-0.16508-0.067334-0.26934-0.065162-0.10643-0.22155-0.19549-0.15422-0.089-0.47134-0.202-0.4431-0.15856-0.63425-0.37577-0.18897-0.21721-0.18897-0.56691 0-0.36708 0.27585-0.58429t0.72982-0.21721q0.47351 0 0.871 0.17377l-0.11512 0.32147q-0.39315-0.16508-0.76457-0.16508-0.29323 0-0.45831 0.12598t-0.16508 0.3497q0 0.16508 0.060818 0.27151 0.060818 0.10426 0.20418 0.19332 0.14553 0.0869 0.4431 0.19331 0.49958 0.17811 0.68638 0.38229 0.18897 0.20417 0.18897 0.52998z"/>
<path d="m10.121 279.75-0.39532-1.01h-1.2728l-0.39097 1.01h-0.3736l1.2555-3.1886h0.31061l1.2489 3.1886zm-0.51044-1.3423-0.36925-0.98395q-0.071679-0.1868-0.1477-0.45831-0.047786 0.20852-0.13684 0.45831l-0.3736 0.98395z"/>
<path d="m11.918 279.75h-0.36925v-2.8476h-1.0057v-0.32798h2.3806v0.32798h-1.0057z"/>
<path d="m13.399 279.75v-3.1756h0.36925v3.1756z"/>
<path d="m16.434 278.91q0 0.41921-0.30409 0.6538-0.30409 0.23458-0.82539 0.23458-0.56474 0-0.86883-0.14553v-0.35622q0.19549 0.0825 0.42573 0.13033 0.23024 0.0478 0.45614 0.0478 0.36925 0 0.55605-0.13901 0.1868-0.14118 0.1868-0.39097 0-0.16508-0.06733-0.26934-0.06516-0.10643-0.22155-0.19549-0.15422-0.089-0.47134-0.202-0.4431-0.15856-0.63425-0.37577-0.18897-0.21721-0.18897-0.56691 0-0.36708 0.27585-0.58429 0.27585-0.21721 0.72982-0.21721 0.47351 0 0.871 0.17377l-0.11512 0.32147q-0.39315-0.16508-0.76457-0.16508-0.29323 0-0.45831 0.12598t-0.16508 0.3497q0 0.16508 0.06082 0.27151 0.06082 0.10426 0.20418 0.19332 0.14553 0.0869 0.4431 0.19331 0.49958 0.17811 0.68638 0.38229 0.18897 0.20417 0.18897 0.52998z"/>
<path d="m17.452 279.75h-0.36925v-3.1756h1.7702v0.32798h-1.401v1.1621h1.3163v0.32798h-1.3163z"/>
<path d="m21.373 279.75-0.39532-1.01h-1.2728l-0.39097 1.01h-0.3736l1.2555-3.1886h0.31061l1.2489 3.1886zm-0.51044-1.3423-0.36925-0.98395q-0.07168-0.1868-0.1477-0.45831-0.04779 0.20852-0.13684 0.45831l-0.3736 0.98395z"/>
<path d="m23.551 276.86q-0.52347 0-0.82756 0.3497-0.30192 0.34753-0.30192 0.95354 0 0.62339 0.29106 0.96441 0.29323 0.33884 0.83408 0.33884 0.33233 0 0.75806-0.11946v0.32364q-0.33016 0.1238-0.81453 0.1238-0.70158 0-1.0839-0.42572-0.38011-0.42573-0.38011-1.2098 0-0.49089 0.18246-0.86014 0.18463-0.36926 0.52999-0.56909 0.34753-0.19983 0.8167-0.19983 0.49958 0 0.87318 0.18246l-0.15639 0.31712q-0.36056-0.16942-0.72113-0.16942z"/>
<path d="m25.975 279.75h-0.36925v-2.8476h-1.0057v-0.32798h2.3806v0.32798h-1.0057z"/>
<path d="m27.457 279.75v-3.1756h0.36925v3.1756z"/>
<path d="m31.456 278.16q0 0.7624-0.38663 1.199-0.38446 0.43658-1.0708 0.43658-0.70158 0-1.0839-0.4279-0.38011-0.43007-0.38011-1.212 0-0.77544 0.38229-1.2012 0.38228-0.4279 1.086-0.4279 0.6842 0 1.0687 0.43441 0.38446 0.43442 0.38446 1.199zm-2.5305 0q0 0.64511 0.27368 0.97961 0.27585 0.33232 0.79932 0.33232 0.52781 0 0.79715-0.33232 0.26934-0.33233 0.26934-0.97961 0-0.64076-0.26934-0.97092-0.26717-0.33233-0.79281-0.33233-0.52782 0-0.80367 0.3345-0.27368 0.33233-0.27368 0.96875z"/>
<path d="m34.646 279.75h-0.42138l-1.7355-2.6651h-0.01738q0.03475 0.46917 0.03475 0.86015v1.805h-0.34102v-3.1756h0.41704l1.7311 2.6543h0.01738q-0.0043-0.0586-0.01955-0.37577-0.0152-0.31929-0.01086-0.45613v-1.8224h0.34536z"/>
<path d="m11.42 282.9h1.0795v1.5443q-0.25196 0.0804-0.51261 0.12164-0.26065 0.0413-0.60384 0.0413-0.72113 0-1.123-0.4279-0.40183-0.43007-0.40183-1.2033 0-0.49523 0.19766-0.86666 0.19983-0.3736 0.57343-0.56908 0.3736-0.19766 0.87535-0.19766 0.50827 0 0.94702 0.1868l-0.14336 0.32581q-0.43007-0.18246-0.82756-0.18246-0.57994 0-0.90576 0.34536-0.32581 0.34536-0.32581 0.95789 0 0.64293 0.31278 0.97526 0.31495 0.33233 0.92313 0.33233 0.33016 0 0.64511-0.076v-0.97744h-0.71027z"/>
<path d="m15.261 284.57-0.39532-1.01h-1.2728l-0.39097 1.01h-0.3736l1.2555-3.1886h0.31061l1.2489 3.1886zm-0.51044-1.3424-0.36925-0.98395q-0.07168-0.1868-0.1477-0.45831-0.04779 0.20852-0.13684 0.45831l-0.3736 0.98395z"/>
<path d="m16.449 283.25v1.3206h-0.36925v-3.1756h0.871q0.58429 0 0.86232 0.22372 0.2802 0.22373 0.2802 0.67335 0 0.6299-0.63859 0.85145l0.86231 1.4271h-0.43659l-0.76892-1.3206zm0-0.31712h0.50609q0.39097 0 0.57343-0.15422 0.18245-0.15639 0.18245-0.46699 0-0.31495-0.1868-0.45397-0.18463-0.13901-0.59515-0.13901h-0.48003z"/>
<path d="m20.83 284.57-0.39532-1.01h-1.2728l-0.39097 1.01h-0.3736l1.2555-3.1886h0.31061l1.2489 3.1886zm-0.51044-1.3424-0.36925-0.98395q-0.07168-0.1868-0.1477-0.45831-0.04779 0.20852-0.13684 0.45831l-0.3736 0.98395z"/>
<path d="m24.129 284.57h-0.42138l-1.7355-2.6651h-0.01738q0.03475 0.46917 0.03475 0.86014v1.805h-0.34102v-3.1756h0.41704l1.7311 2.6543h0.01738q-0.0043-0.0587-0.01955-0.37577-0.01521-0.3193-0.01086-0.45614v-1.8224h0.34536z"/>
<path d="m25.98 284.57h-0.36925v-2.8476h-1.0057v-0.32798h2.3806v0.32798h-1.0057z"/>
<path d="m27.461 284.57v-3.1756h0.36925v3.1756z"/>
<path d="m30.474 284.57h-1.7702v-3.1756h1.7702v0.32798h-1.401v1.023h1.3163v0.32581h-1.3163v1.1686h1.401z"/>
</g>
</g>
</svg>
