<?xml version="1.0" encoding="utf-8"?>
<!-- Generator: Adobe Illustrator 19.0.0, SVG Export Plug-In . SVG Version: 6.00 Build 0)  -->
<svg version="1.1" id="Layer_1" xmlns="http://www.w3.org/2000/svg" xmlns:xlink="http://www.w3.org/1999/xlink" x="0px" y="0px"
	 width="512px" height="512px" viewBox="0 0 512 512" style="enable-background:new 0 0 512 512;" xml:space="preserve">
<style type="text/css">
	.st0{fill:#EEEEEE;}
	.st1{fill:#CCCCCC;}
</style>
<g>
	<polygon id="XMLID_58_" class="st0" points="0,0 512,0 512,512 0,512 	"/>
	<g id="XMLID_53_">
		<path id="XMLID_62_" class="st1" d="M313.9863586,221.9994812l-6.7469482-39.5675964l-138.097168,24.1769714
			l20.1953735,115.2922363l13.6618652-2.3537292v10.4521179h140v-108H313.9863586z M202.9994812,307.9492798l-4.3830261,0.8416138
			l-16.4228516-92.977005l115.7595825-20.3117523l4.6502991,26.497345h-99.6040039V307.9492798z M331.9994812,317.9994812h-118v-85
			h118V317.9994812z"/>
		<path id="XMLID_70_" class="st1" d="M260.6437683,297.1954346l35.8408813-39.4258423l4.4819336,1.8967285l23.0328979,26.7776489
			v-45.4444885h-102v62.731842l23.8558044-15.8110352L260.6437683,297.1954346z M234.7118225,257.7695313
			c0-5.4816437,4.6391602-10.1216583,10.1192017-10.1216583c5.4824829,0,10.1192017,4.6375732,10.1192017,10.1216583
			c0.0016479,5.4824829-4.6367188,10.1200562-10.1192017,10.1200562
			C239.3509827,267.8895874,234.7118225,263.2520142,234.7118225,257.7695313z"/>
	</g>
</g>
</svg>
